<?xml version="1.0"?><svg xmlns="http://www.w3.org/2000/svg"  viewBox="0 0 50 50" width="50px" height="50px">    <path d="M 4 17 L 3 18 L 1 24 L 2 25 L 5 25 L 2 32 L 3 34 L 11 34 L 12 33 L 12 27 L 10 27 L 12 19 L 12 17 L 4 17 z M 14 17 L 13 17.923828 L 13 29 L 18.5 29 C 18.5 29 22.24 28.915 23 29 C 22.986 24.629 23 17.923828 23 17.923828 L 22 17 L 19 17 L 19 23.5 C 19 24.052 18.553 24.5 18 24.5 C 17.447 24.5 17 24.052 17 23.5 L 17 17 L 14 17 z M 25 17 L 24 18 L 24 33 L 25 34 L 28 34 L 28 29 L 29 31 L 31 31 L 32 29 L 32 34 L 34.976562 34 L 36 33 L 36 18 L 35 17 L 33 17 L 30 23 L 27 17 L 25 17 z M 38.007812 17 L 37 17.923828 L 37 29 L 48 29 L 49 27 L 41 17 L 38.007812 17 z M 41 22 L 43 25 L 41 26 L 41 22 z M 13 31 L 13 33 L 14 34 L 22 34 L 23 33 L 23 31 L 13 31 z M 37 31 L 37 33 L 38 34 L 47 34 L 48 33 L 48 31 L 37 31 z"/></svg>