<?xml version="1.0"?>
<svg version="1.1" xmlns="http://www.w3.org/2000/svg" width="400px" height="200px" style="border: dashed 2px #aaa"><path fill="#0d81d4" d="M52.6806640625,115.1171875q0-0.87890625,1.142578125-1.12060546875t1.7578125-0.24169921875q3.8671875,0,7.6025390625-0.6591796875t7.5146484375-0.6591796875q0.3515625,0,1.16455078125,0.0439453125t1.5380859375,0.17578125t1.29638671875,0.439453125t0.5712890625,0.9228515625q0,1.0986328125-0.52734375,3.1640625t-1.42822265625,4.63623046875t-1.9775390625,5.44921875t-2.1533203125,5.4931640625t-2.021484375,4.72412109375t-1.51611328125,3.2958984375q1.4501953125,0.263671875,3.5595703125,0.439453125t3.9990234375,0.3515625t3.1640625,0.59326171875t1.1865234375,1.03271484375q-0.17578125,1.0107421875-1.8017578125,1.58203125q-1.58203125,0.5712890625-3.955078125,0.791015625q-1.4501953125,0.1318359375-3.076171875,0.1318359375q-0.966796875,0-1.93359375-0.0439453125q-2.63671875-0.1318359375-4.94384765625-0.439453125t-3.84521484375-0.85693359375t-1.5380859375-1.16455078125q0-0.263671875,0.76904296875-2.1533203125t1.8896484375-4.59228515625t2.48291015625-5.888671875t2.61474609375-6.13037109375t2.197265625-5.2294921875t1.29638671875-3.1640625q-2.5927734375,0.17578125-5.25146484375,0.439453125t-5.25146484375,0.263671875q-0.3515625,0-1.12060546875-0.0439453125t-1.494140625-0.2197265625t-1.318359375-0.50537109375t-0.59326171875-0.85693359375z M84.834130859375,124.7412109375q0-0.87890625,0.19775390625-2.3291015625t0.46142578125-2.87841796875t0.615234375-2.65869140625t0.8349609375-1.58203125q0.3515625-0.3515625,1.20849609375-0.703125t1.8017578125-0.50537109375t1.7578125,0.1318359375t0.98876953125,1.16455078125q-0.615234375,0.791015625-1.12060546875,2.70263671875t-0.76904296875,4.24072265625q-0.2197265625,1.9775390625-0.2197265625,4.0869140625l0,0.7470703125q0.0439453125,2.4609375,0.439453125,4.5263671875t1.20849609375,3.40576171875t2.26318359375,1.34033203125q3.076171875,0,5.625-2.83447265625t4.5263671875-6.92138671875t3.4716796875-8.67919921875t2.548828125-8.02001953125q0.263671875-1.0107421875,1.25244140625-1.3623046875t2.13134765625-0.24169921875t2.04345703125,0.54931640625t1.07666015625,1.0546875q-0.87890625,7.3828125-1.38427734375,14.765625t-0.50537109375,14.853515625q0,1.4501953125,0.1318359375,2.65869140625t-0.1318359375,2.0654296875t-1.16455078125,1.3623046875t-2.87841796875,0.50537109375q-0.439453125,0-1.12060546875-0.087890625t-1.40625-0.28564453125t-1.23046875-0.59326171875t-0.50537109375-0.9228515625q0-3.251953125,0.24169921875-6.6796875t0.68115234375-6.6357421875q-1.1865234375,1.7138671875-2.61474609375,3.40576171875t-3.14208984375,3.05419921875t-3.69140625,2.17529296875t-4.2626953125,0.81298828125q-3.251953125,0-5.11962890625-1.5380859375t-2.8125-3.84521484375t-1.1865234375-5.03173828125t-0.24169921875-5.2734375z M126.28203125,117.60009765625q-0.10986328125-1.47216796875,0.17578125-2.70263671875t1.142578125-1.99951171875t2.74658203125-0.76904296875q0.439453125,0,1.07666015625,0.10986328125t1.25244140625,0.28564453125t1.03271484375,0.52734375t0.41748046875,0.966796875l0,4.9658203125q1.7138671875-1.9775390625,3.7353515625-2.83447265625t4.6142578125-0.85693359375q1.9775390625,0,3.9111328125,0.90087890625t3.6474609375,2.39501953125t2.96630859375,3.2958984375t1.82373046875,3.603515625q0.3515625-1.6259765625,0.791015625-3.97705078125t1.29638671875-4.50439453125t2.26318359375-3.69140625t3.7353515625-1.5380859375q2.5048828125,0,4.21875,1.8017578125t2.79052734375,4.68017578125t1.6259765625,6.43798828125t0.81298828125,7.03125t0.263671875,6.48193359375l0,4.72412109375q0,0.52734375-0.3955078125,0.85693359375t-0.98876953125,0.50537109375t-1.23046875,0.2197265625t-0.98876953125,0.0439453125q-1.3623046875,0-2.48291015625-0.41748046875t-1.12060546875-2.13134765625l0-3.955078125t-0.087890625-5.11962890625t-0.3076171875-5.4931640625t-0.5712890625-4.98779296875t-0.90087890625-3.603515625t-1.34033203125-1.40625q-1.0986328125,0-1.58203125,1.23046875t-0.81298828125,3.1201171875t-0.50537109375,3.9990234375t-0.4833984375,3.9990234375t-0.98876953125,3.09814453125t-1.86767578125,1.20849609375q-1.2744140625,0-2.2412109375-1.20849609375t-1.91162109375-3.01025390625t-1.8896484375-3.8671875t-2.08740234375-3.8671875q-1.142578125-1.845703125-2.4609375-2.98828125q-1.1865234375-1.0986328125-2.6806640625-1.0546875l-0.2197265625,0q-1.9775390625,0.087890625-3.09814453125,1.42822265625t-1.7138671875,3.27392578125t-0.72509765625,4.15283203125t-0.1318359375,3.88916015625q0,1.58203125,0.263671875,3.69140625q0.17578125,1.40625,0.17578125,2.6806640625q0,0.6591796875-0.0439453125,1.2744140625q-0.1318359375,1.845703125-0.98876953125,3.09814453125t-3.18603515625,1.25244140625q-0.87890625,0-2.197265625-0.17578125t-1.7578125-1.1865234375q-1.0107421875-1.8017578125-1.5380859375-4.54833984375t-0.791015625-5.6689453125t-0.3076171875-5.80078125t-0.0439453125-4.94384765625q0-1.4501953125-0.10986328125-2.92236328125z M181.70454101563,128.6083984375q0-2.98828125,0.81298828125-5.7568359375t2.43896484375-4.94384765625t4.06494140625-3.4716796875t5.64697265625-1.29638671875q1.9775390625,0,4.37255859375,0.59326171875t4.50439453125,1.7578125t3.515625,2.96630859375t1.40625,4.130859375q0,1.0986328125-0.37353515625,1.669921875t-1.51611328125,0.5712890625l-0.4833984375-0.087890625q1.2744140625,3.427734375,2.197265625,7.03125t1.8017578125,7.20703125q0.3515625,0.703125,0.52734375,1.25244140625t0.17578125,1.07666015625q0,0.703125-0.3955078125,1.16455078125t-1.03271484375,0.68115234375t-1.318359375,0.3076171875t-1.20849609375,0.087890625q-1.8896484375,0-2.83447265625-0.6591796875t-1.3623046875-1.8017578125t-0.50537109375-2.57080078125t-0.3515625-2.87841796875q-0.52734375,1.7138671875-1.38427734375,3.33984375t-2.021484375,2.92236328125t-2.74658203125,2.0654296875t-3.5595703125,0.76904296875q-2.900390625,0-4.8779296875-1.669921875t-3.18603515625-4.10888671875t-1.7578125-5.20751953125t-0.54931640625-5.1416015625z M187.94477539063,127.9931640625q0,1.6259765625,0.2197265625,3.427734375t0.72509765625,3.5595703125t1.29638671875,3.31787109375t1.9775390625,2.74658203125q2.1533203125-2.3291015625,3.18603515625-5.6689453125t1.845703125-6.43798828125t1.845703125-5.3173828125t3.18603515625-2.21923828125q1.3623046875,0,2.28515625,0.4833984375q-0.439453125-1.0986328125-1.4501953125-2.13134765625t-2.26318359375-1.8896484375t-2.5927734375-1.40625t-2.52685546875-0.54931640625q-0.3515625,0-0.81298828125,0.10986328125t-0.72509765625,0.02197265625q-1.8017578125,0.52734375-2.96630859375,1.82373046875t-1.8896484375,3.05419921875t-1.03271484375,3.603515625t-0.3076171875,3.4716796875z M220.7134765625,142.4951171875q0-1.0986328125,0.1318359375-2.21923828125t0.1318359375-2.21923828125l0-0.703125q0-1.3623046875,1.12060546875-1.7138671875t2.30712890625-0.3515625q1.3623046875,0,2.61474609375,0.5712890625t1.25244140625,2.197265625q0.263671875,0.791015625,0.263671875,1.8896484375l0,2.0654296875q0,1.5380859375-1.07666015625,2.13134765625t-2.87841796875,0.59326171875q-1.2744140625,0-2.57080078125-0.46142578125t-1.29638671875-1.77978515625z M238.54077148438,117.2705078125q0-1.8017578125,1.0546875-3.09814453125t2.57080078125-2.109375t3.31787109375-1.20849609375t3.33984375-0.3955078125q1.1865234375,0,3.1640625,0.3515625t3.8671875,1.0546875t3.27392578125,1.845703125t1.38427734375,2.6806640625q0,0.703125-0.52734375,1.25244140625t-1.0986328125,0.54931640625q-1.1865234375,0-2.1533203125-0.76904296875t-1.99951171875-1.6259765625t-2.26318359375-1.6259765625t-2.7685546875-0.76904296875t-2.79052734375,0.98876953125t-1.25244140625,2.61474609375q0,2.6806640625,1.8896484375,5.25146484375t4.15283203125,5.4052734375t4.15283203125,5.95458984375t1.8896484375,6.8994140625q0,1.6259765625-0.68115234375,2.74658203125t-1.8017578125,1.82373046875t-2.52685546875,1.07666015625t-2.724609375,0.37353515625q-1.4501953125,0-3.3837890625-0.68115234375t-3.6474609375-1.8017578125t-2.87841796875-2.61474609375t-1.16455078125-3.1201171875q0-0.791015625,1.12060546875-1.0107421875t1.64794921875-0.2197265625q0.263671875,0,0.81298828125,0.17578125t1.07666015625,0.3955078125t0.94482421875,0.4833984375t0.32958984375,0.5712890625q0.439453125,0.52734375,1.34033203125,1.56005859375t1.8017578125,1.669921875t1.58203125,0.46142578125t0.68115234375-1.9775390625q0-3.427734375-1.845703125-6.30615234375t-4.02099609375-5.625t-4.02099609375-5.44921875t-1.845703125-5.77880859375z M269.50771484375,133.3984375l0-4.130859375q0-2.2412109375,0.10986328125-6.35009765625t0.28564453125-9.0087890625t0.4833984375-10.21728515625t0.703125-10.04150390625t0.94482421875-8.45947265625t1.25244140625-5.537109375q0.439453125-1.0107421875,1.4501953125-1.2744140625t1.9775390625-0.263671875q1.5380859375,0,2.70263671875,0.68115234375t1.16455078125,2.48291015625l-0.791015625,0.87890625q-1.5380859375,10.1513671875-1.9775390625,20.390625t-0.615234375,20.478515625q1.0986328125-1.7138671875,2.48291015625-3.36181640625t3.076171875-2.92236328125t3.6474609375-2.04345703125t4.28466796875-0.76904296875q2.98828125,0,4.94384765625,1.8017578125t3.22998046875,4.68017578125t1.8896484375,6.43798828125t0.94482421875,7.119140625t0.46142578125,6.74560546875t0.3955078125,5.29541015625q-0.8349609375,1.142578125-2.4609375,1.142578125l-0.1318359375,0q-0.703125,0-1.5380859375-0.17578125t-1.0986328125-0.87890625l0.087890625,0.087890625q-0.615234375-1.3623046875-0.8349609375-3.93310546875t-0.3515625-5.6689453125t-0.46142578125-6.35009765625t-0.98876953125-5.888671875t-1.93359375-4.3505859375t-3.427734375-1.8017578125l-0.263671875,0q-2.5927734375,0-4.3505859375,1.58203125q-1.845703125,1.669921875-2.98828125,4.39453125t-1.7578125,6.064453125t-0.94482421875,6.43798828125t-0.50537109375,5.625t-0.439453125,3.71337890625q-0.263671875,1.0107421875-1.56005859375,1.34033203125t-2.21923828125,0.32958984375q-2.1533203125,0-3.515625-1.23046875q-1.0107421875-2.4169921875-1.1865234375-6.0205078125t-0.17578125-7.03125z M310.66997070312,129.443359375q0-2.5048828125,0.63720703125-5.16357421875t2.021484375-4.7900390625t3.49365234375-3.4716796875t5.09765625-1.34033203125q2.2412109375,0,4.72412109375,0.76904296875t4.54833984375,2.197265625t3.36181640625,3.49365234375t1.29638671875,4.6142578125q0,3.076171875-1.12060546875,5.8447265625t-3.14208984375,4.94384765625t-4.72412109375,3.427734375t-5.86669921875,1.25244140625q-2.5927734375,0-4.5263671875-0.94482421875t-3.22998046875-2.52685546875t-1.93359375-3.7353515625t-0.63720703125-4.5703125z M317.12993164062,129.35546875q0,0.791015625,0.24169921875,2.3291015625t0.72509765625,3.01025390625t1.25244140625,2.548828125t1.86767578125,0.98876953125q2.3291015625-0.263671875,3.84521484375-1.51611328125t2.4609375-3.05419921875t1.318359375-3.9111328125t0.37353515625-3.9990234375q0-2.4169921875-0.94482421875-4.04296875t-3.09814453125-2.63671875q0,0.087890625,0.087890625,0.087890625t0.087890625-0.087890625l-1.0986328125-0.263671875q-0.439453125-0.17578125-1.07666015625-0.3955078125t-1.25244140625-0.966796875q-1.7138671875,0.615234375-2.65869140625,1.58203125t-1.42822265625,2.35107421875t-0.59326171875,3.31787109375t-0.10986328125,4.658203125z M343.966015625,112.7001953125q0-2.0654296875,0.81298828125-3.05419921875t2.96630859375-0.98876953125q1.2744140625,0,2.39501953125,0.52734375t1.12060546875,2.2412109375q0.17578125,2.5048828125,0.17578125,5.25146484375t0.4833984375,5.20751953125q1.0986328125-1.8017578125,2.48291015625-3.603515625t3.05419921875-3.2080078125t3.6474609375-2.26318359375t4.306640625-0.85693359375q3.1640625,0,5.361328125,1.318359375t3.62548828125,3.427734375t2.0654296875,4.76806640625t0.63720703125,5.33935546875q0,4.130859375-1.25244140625,6.74560546875t-3.31787109375,4.10888671875t-4.68017578125,2.021484375t-5.25146484375,0.52734375q-2.3291015625,0-4.3505859375-0.90087890625t-2.8125-3.40576171875q0-0.703125,1.03271484375-0.87890625t1.47216796875-0.17578125q1.4501953125,0,2.1533203125,0.791015625q0.52734375,0.615234375,1.16455078125,1.25244140625t1.34033203125,0.63720703125q1.3623046875,0,2.8564453125-0.76904296875t2.74658203125-2.021484375t2.109375-2.96630859375t0.85693359375-3.515625q0-1.5380859375-0.263671875-3.8232421875t-0.90087890625-4.39453125t-1.7578125-3.6474609375t-2.83447265625-1.5380859375q-2.5927734375,0-4.68017578125,2.373046875t-3.4716796875,5.712890625t-2.1533203125,6.943359375t-0.76904296875,6.0205078125t0.3076171875,6.1083984375t0.63720703125,7.66845703125t0.63720703125,7.66845703125t0.3076171875,6.1083984375q0,0.615234375-0.50537109375,0.98876953125t-1.20849609375,0.59326171875t-1.42822265625,0.263671875t-1.07666015625,0.0439453125q-1.1865234375,0-2.48291015625-0.263671875t-1.77978515625-1.6259765625q-0.615234375-2.1533203125-1.142578125-6.13037109375t-0.94482421875-8.7890625t-0.72509765625-10.107421875t-0.52734375-10.21728515625t-0.32958984375-9.0087890625t-0.10986328125-6.50390625z"/><path fill="#" d=""/></svg>
